<mxfile host="65bd71144e">
    <diagram id="0lHeeGnAVFp4kvdnAlzk" name="Page-1">
        <mxGraphModel dx="1078" dy="555" grid="1" gridSize="10" guides="1" tooltips="1" connect="1" arrows="1" fold="1" page="1" pageScale="1" pageWidth="827" pageHeight="1169" background="none" math="0" shadow="0">
            <root>
                <mxCell id="0"/>
                <mxCell id="1" parent="0"/>
                <mxCell id="uIRtdp_em9ZP-eKvbKKV-1" value="Task" style="swimlane;fontStyle=1;align=center;verticalAlign=top;childLayout=stackLayout;horizontal=1;startSize=26;horizontalStack=0;resizeParent=1;resizeParentMax=0;resizeLast=0;collapsible=1;marginBottom=0;whiteSpace=wrap;html=1;" parent="1" vertex="1">
                    <mxGeometry x="120" y="100" width="160" height="170" as="geometry"/>
                </mxCell>
                <mxCell id="uIRtdp_em9ZP-eKvbKKV-2" value="# Flight Preparation&lt;div&gt;# Equipment Installation&lt;/div&gt;&lt;div&gt;# Data Collection&lt;/div&gt;&lt;div&gt;# Post-flight Analysis&lt;/div&gt;" style="text;strokeColor=none;fillColor=none;align=left;verticalAlign=top;spacingLeft=4;spacingRight=4;overflow=hidden;rotatable=0;points=[[0,0.5],[1,0.5]];portConstraint=eastwest;whiteSpace=wrap;html=1;" parent="uIRtdp_em9ZP-eKvbKKV-1" vertex="1">
                    <mxGeometry y="26" width="160" height="74" as="geometry"/>
                </mxCell>
                <mxCell id="uIRtdp_em9ZP-eKvbKKV-3" value="" style="line;strokeWidth=1;fillColor=none;align=left;verticalAlign=middle;spacingTop=-1;spacingLeft=3;spacingRight=3;rotatable=0;labelPosition=right;points=[];portConstraint=eastwest;strokeColor=inherit;" parent="uIRtdp_em9ZP-eKvbKKV-1" vertex="1">
                    <mxGeometry y="100" width="160" height="8" as="geometry"/>
                </mxCell>
                <mxCell id="uIRtdp_em9ZP-eKvbKKV-4" value="- DefineName()&lt;div&gt;- DefineColour()&lt;/div&gt;&lt;div&gt;- DefineDate()&lt;/div&gt;" style="text;strokeColor=none;fillColor=none;align=left;verticalAlign=top;spacingLeft=4;spacingRight=4;overflow=hidden;rotatable=0;points=[[0,0.5],[1,0.5]];portConstraint=eastwest;whiteSpace=wrap;html=1;" parent="uIRtdp_em9ZP-eKvbKKV-1" vertex="1">
                    <mxGeometry y="108" width="160" height="62" as="geometry"/>
                </mxCell>
                <mxCell id="uIRtdp_em9ZP-eKvbKKV-9" value="To Do" style="swimlane;fontStyle=1;align=center;verticalAlign=top;childLayout=stackLayout;horizontal=1;startSize=26;horizontalStack=0;resizeParent=1;resizeParentMax=0;resizeLast=0;collapsible=1;marginBottom=0;whiteSpace=wrap;html=1;" parent="1" vertex="1">
                    <mxGeometry x="50" y="338" width="160" height="138" as="geometry">
                        <mxRectangle x="120" y="340" width="70" height="30" as="alternateBounds"/>
                    </mxGeometry>
                </mxCell>
                <mxCell id="uIRtdp_em9ZP-eKvbKKV-10" value="- See More Data&lt;div&gt;- See Colour&lt;/div&gt;" style="text;strokeColor=none;fillColor=none;align=left;verticalAlign=top;spacingLeft=4;spacingRight=4;overflow=hidden;rotatable=0;points=[[0,0.5],[1,0.5]];portConstraint=eastwest;whiteSpace=wrap;html=1;" parent="uIRtdp_em9ZP-eKvbKKV-9" vertex="1">
                    <mxGeometry y="26" width="160" height="34" as="geometry"/>
                </mxCell>
                <mxCell id="uIRtdp_em9ZP-eKvbKKV-11" value="" style="line;strokeWidth=1;fillColor=none;align=left;verticalAlign=middle;spacingTop=-1;spacingLeft=3;spacingRight=3;rotatable=0;labelPosition=right;points=[];portConstraint=eastwest;strokeColor=inherit;" parent="uIRtdp_em9ZP-eKvbKKV-9" vertex="1">
                    <mxGeometry y="60" width="160" height="8" as="geometry"/>
                </mxCell>
                <mxCell id="uIRtdp_em9ZP-eKvbKKV-12" value="- DefineAsFinished()&lt;div&gt;- Deletetask()&lt;/div&gt;&lt;div&gt;- SeeData()&lt;/div&gt;" style="text;strokeColor=none;fillColor=none;align=left;verticalAlign=top;spacingLeft=4;spacingRight=4;overflow=hidden;rotatable=0;points=[[0,0.5],[1,0.5]];portConstraint=eastwest;whiteSpace=wrap;html=1;" parent="uIRtdp_em9ZP-eKvbKKV-9" vertex="1">
                    <mxGeometry y="68" width="160" height="70" as="geometry"/>
                </mxCell>
                <mxCell id="uIRtdp_em9ZP-eKvbKKV-13" value="Finished Task" style="swimlane;fontStyle=1;align=center;verticalAlign=top;childLayout=stackLayout;horizontal=1;startSize=26;horizontalStack=0;resizeParent=1;resizeParentMax=0;resizeLast=0;collapsible=1;marginBottom=0;whiteSpace=wrap;html=1;" parent="1" vertex="1">
                    <mxGeometry x="370" y="338" width="160" height="104" as="geometry"/>
                </mxCell>
                <mxCell id="uIRtdp_em9ZP-eKvbKKV-14" value="- See Feedback&lt;div&gt;- See Colour&lt;/div&gt;" style="text;strokeColor=none;fillColor=none;align=left;verticalAlign=top;spacingLeft=4;spacingRight=4;overflow=hidden;rotatable=0;points=[[0,0.5],[1,0.5]];portConstraint=eastwest;whiteSpace=wrap;html=1;" parent="uIRtdp_em9ZP-eKvbKKV-13" vertex="1">
                    <mxGeometry y="26" width="160" height="44" as="geometry"/>
                </mxCell>
                <mxCell id="uIRtdp_em9ZP-eKvbKKV-15" value="" style="line;strokeWidth=1;fillColor=none;align=left;verticalAlign=middle;spacingTop=-1;spacingLeft=3;spacingRight=3;rotatable=0;labelPosition=right;points=[];portConstraint=eastwest;strokeColor=inherit;" parent="uIRtdp_em9ZP-eKvbKKV-13" vertex="1">
                    <mxGeometry y="70" width="160" height="8" as="geometry"/>
                </mxCell>
                <mxCell id="uIRtdp_em9ZP-eKvbKKV-16" value="-&amp;nbsp;" style="text;strokeColor=none;fillColor=none;align=left;verticalAlign=top;spacingLeft=4;spacingRight=4;overflow=hidden;rotatable=0;points=[[0,0.5],[1,0.5]];portConstraint=eastwest;whiteSpace=wrap;html=1;" parent="uIRtdp_em9ZP-eKvbKKV-13" vertex="1">
                    <mxGeometry y="78" width="160" height="26" as="geometry"/>
                </mxCell>
                <mxCell id="uIRtdp_em9ZP-eKvbKKV-27" value="" style="endArrow=block;endSize=16;endFill=0;html=1;rounded=0;exitX=0.169;exitY=-0.01;exitDx=0;exitDy=0;exitPerimeter=0;entryX=0.175;entryY=1.016;entryDx=0;entryDy=0;entryPerimeter=0;" parent="1" source="uIRtdp_em9ZP-eKvbKKV-9" target="uIRtdp_em9ZP-eKvbKKV-4" edge="1">
                    <mxGeometry width="160" relative="1" as="geometry">
                        <mxPoint x="330" y="240" as="sourcePoint"/>
                        <mxPoint x="490" y="240" as="targetPoint"/>
                        <Array as="points">
                            <mxPoint x="77" y="300"/>
                            <mxPoint x="148" y="300"/>
                        </Array>
                    </mxGeometry>
                </mxCell>
                <mxCell id="uIRtdp_em9ZP-eKvbKKV-28" value="" style="endArrow=block;endSize=16;endFill=0;html=1;rounded=0;exitX=0.125;exitY=0.023;exitDx=0;exitDy=0;exitPerimeter=0;entryX=0.938;entryY=1.032;entryDx=0;entryDy=0;entryPerimeter=0;" parent="1" source="uIRtdp_em9ZP-eKvbKKV-13" target="uIRtdp_em9ZP-eKvbKKV-4" edge="1">
                    <mxGeometry width="160" relative="1" as="geometry">
                        <mxPoint x="330" y="240" as="sourcePoint"/>
                        <mxPoint x="490" y="240" as="targetPoint"/>
                        <Array as="points">
                            <mxPoint x="390" y="310"/>
                            <mxPoint x="270" y="310"/>
                        </Array>
                    </mxGeometry>
                </mxCell>
                <mxCell id="uIRtdp_em9ZP-eKvbKKV-29" value="Legend" style="swimlane;fontStyle=1;align=center;verticalAlign=top;childLayout=stackLayout;horizontal=1;startSize=26;horizontalStack=0;resizeParent=1;resizeParentMax=0;resizeLast=0;collapsible=1;marginBottom=0;whiteSpace=wrap;html=1;" parent="1" vertex="1">
                    <mxGeometry x="380" y="110" width="160" height="86" as="geometry"/>
                </mxCell>
                <mxCell id="uIRtdp_em9ZP-eKvbKKV-30" value="-&amp;nbsp;" style="text;strokeColor=none;fillColor=none;align=left;verticalAlign=top;spacingLeft=4;spacingRight=4;overflow=hidden;rotatable=0;points=[[0,0.5],[1,0.5]];portConstraint=eastwest;whiteSpace=wrap;html=1;" parent="uIRtdp_em9ZP-eKvbKKV-29" vertex="1">
                    <mxGeometry y="26" width="160" height="26" as="geometry"/>
                </mxCell>
                <mxCell id="uIRtdp_em9ZP-eKvbKKV-31" value="" style="line;strokeWidth=1;fillColor=none;align=left;verticalAlign=middle;spacingTop=-1;spacingLeft=3;spacingRight=3;rotatable=0;labelPosition=right;points=[];portConstraint=eastwest;strokeColor=inherit;" parent="uIRtdp_em9ZP-eKvbKKV-29" vertex="1">
                    <mxGeometry y="52" width="160" height="8" as="geometry"/>
                </mxCell>
                <mxCell id="uIRtdp_em9ZP-eKvbKKV-32" value="-&amp;nbsp;" style="text;strokeColor=none;fillColor=none;align=left;verticalAlign=top;spacingLeft=4;spacingRight=4;overflow=hidden;rotatable=0;points=[[0,0.5],[1,0.5]];portConstraint=eastwest;whiteSpace=wrap;html=1;" parent="uIRtdp_em9ZP-eKvbKKV-29" vertex="1">
                    <mxGeometry y="60" width="160" height="26" as="geometry"/>
                </mxCell>
                <mxCell id="uIRtdp_em9ZP-eKvbKKV-33" value="1" style="endArrow=open;html=1;endSize=12;startArrow=diamondThin;startSize=14;startFill=1;edgeStyle=orthogonalEdgeStyle;align=left;verticalAlign=bottom;rounded=0;entryX=1.006;entryY=0.311;entryDx=0;entryDy=0;entryPerimeter=0;exitX=0;exitY=0.5;exitDx=0;exitDy=0;" parent="1" source="uIRtdp_em9ZP-eKvbKKV-30" target="uIRtdp_em9ZP-eKvbKKV-2" edge="1">
                    <mxGeometry x="-1" y="3" relative="1" as="geometry">
                        <mxPoint x="300" y="240" as="sourcePoint"/>
                        <mxPoint x="460" y="240" as="targetPoint"/>
                    </mxGeometry>
                </mxCell>
                <mxCell id="jyHXWvErBnbAjHFtULRO-1" value="JSON" style="swimlane;fontStyle=1;align=center;verticalAlign=top;childLayout=stackLayout;horizontal=1;startSize=26;horizontalStack=0;resizeParent=1;resizeParentMax=0;resizeLast=0;collapsible=1;marginBottom=0;whiteSpace=wrap;html=1;" parent="1" vertex="1">
                    <mxGeometry x="50" y="550" width="160" height="148" as="geometry"/>
                </mxCell>
                <mxCell id="jyHXWvErBnbAjHFtULRO-2" value="+ field: type" style="text;strokeColor=none;fillColor=none;align=left;verticalAlign=top;spacingLeft=4;spacingRight=4;overflow=hidden;rotatable=0;points=[[0,0.5],[1,0.5]];portConstraint=eastwest;whiteSpace=wrap;html=1;" parent="jyHXWvErBnbAjHFtULRO-1" vertex="1">
                    <mxGeometry y="26" width="160" height="54" as="geometry"/>
                </mxCell>
                <mxCell id="jyHXWvErBnbAjHFtULRO-3" value="" style="line;strokeWidth=1;fillColor=none;align=left;verticalAlign=middle;spacingTop=-1;spacingLeft=3;spacingRight=3;rotatable=0;labelPosition=right;points=[];portConstraint=eastwest;strokeColor=inherit;" parent="jyHXWvErBnbAjHFtULRO-1" vertex="1">
                    <mxGeometry y="80" width="160" height="8" as="geometry"/>
                </mxCell>
                <mxCell id="jyHXWvErBnbAjHFtULRO-4" value="+ModifieData()&lt;div&gt;+AddData()&lt;/div&gt;&lt;div&gt;-DeleteData()&lt;/div&gt;" style="text;strokeColor=none;fillColor=none;align=left;verticalAlign=top;spacingLeft=4;spacingRight=4;overflow=hidden;rotatable=0;points=[[0,0.5],[1,0.5]];portConstraint=eastwest;whiteSpace=wrap;html=1;" parent="jyHXWvErBnbAjHFtULRO-1" vertex="1">
                    <mxGeometry y="88" width="160" height="60" as="geometry"/>
                </mxCell>
                <mxCell id="jyHXWvErBnbAjHFtULRO-5" value="Interface" style="swimlane;fontStyle=1;align=center;verticalAlign=top;childLayout=stackLayout;horizontal=1;startSize=26;horizontalStack=0;resizeParent=1;resizeParentMax=0;resizeLast=0;collapsible=1;marginBottom=0;whiteSpace=wrap;html=1;" parent="1" vertex="1">
                    <mxGeometry x="230" y="476" width="160" height="150" as="geometry"/>
                </mxCell>
                <mxCell id="jyHXWvErBnbAjHFtULRO-6" value="- Theme&lt;div&gt;- Filters&lt;/div&gt;" style="text;strokeColor=none;fillColor=none;align=left;verticalAlign=top;spacingLeft=4;spacingRight=4;overflow=hidden;rotatable=0;points=[[0,0.5],[1,0.5]];portConstraint=eastwest;whiteSpace=wrap;html=1;" parent="jyHXWvErBnbAjHFtULRO-5" vertex="1">
                    <mxGeometry y="26" width="160" height="44" as="geometry"/>
                </mxCell>
                <mxCell id="jyHXWvErBnbAjHFtULRO-7" value="" style="line;strokeWidth=1;fillColor=none;align=left;verticalAlign=middle;spacingTop=-1;spacingLeft=3;spacingRight=3;rotatable=0;labelPosition=right;points=[];portConstraint=eastwest;strokeColor=inherit;" parent="jyHXWvErBnbAjHFtULRO-5" vertex="1">
                    <mxGeometry y="70" width="160" height="8" as="geometry"/>
                </mxCell>
                <mxCell id="jyHXWvErBnbAjHFtULRO-8" value="- ChangeTheme()&lt;div&gt;- FilterWeek()&lt;/div&gt;&lt;div&gt;- FilterDay()&lt;/div&gt;&lt;div&gt;- FilterColour()&lt;/div&gt;" style="text;strokeColor=none;fillColor=none;align=left;verticalAlign=top;spacingLeft=4;spacingRight=4;overflow=hidden;rotatable=0;points=[[0,0.5],[1,0.5]];portConstraint=eastwest;whiteSpace=wrap;html=1;" parent="jyHXWvErBnbAjHFtULRO-5" vertex="1">
                    <mxGeometry y="78" width="160" height="72" as="geometry"/>
                </mxCell>
            </root>
        </mxGraphModel>
    </diagram>
</mxfile>